<svg width="104" height="39" viewBox="0 0 104 39" fill="none" xmlns="http://www.w3.org/2000/svg">
<g id="Arrow 05">
<path id="Line-1" fill-rule="evenodd" clip-rule="evenodd" d="M87.6725 12.9162C79.8386 12.2408 77.5957 12.078 73.2332 11.8683C68.7121 11.6509 65.4706 11.5581 60.3188 11.4986C59.1245 11.4848 57.8469 11.4577 56.3502 11.4145C50.8524 11.2556 49.78 11.2513 47.9851 11.3809C47.0958 11.4452 46.3292 11.475 45.9025 11.462C45.523 11.4504 45.4532 11.4595 45.4472 11.5213C45.4419 11.5758 46.0402 11.682 46.3728 11.6856C46.492 11.6869 46.8146 11.693 47.0898 11.6993C47.3649 11.7056 47.9714 11.7095 48.4375 11.7081C49.5351 11.7048 50.0604 11.7211 51.9369 11.8168C55.0915 11.9776 57.4774 12.0697 60.4119 12.1436C61.4933 12.1709 62.9292 12.2071 63.6027 12.2241C68.711 12.3527 74.9391 12.6297 78.7354 12.8969C83.3422 13.2212 97.6178 14.4969 97.3683 14.5619C97.2694 14.5877 95.6118 14.6901 94.62 14.7318C93.7089 14.77 92.1897 14.8053 90.3224 14.8316C89.4368 14.844 88.2213 14.8623 87.6212 14.8721C85.367 14.9091 84.625 14.9164 83.3465 14.9144C77.4566 14.905 73.5547 15.016 68.1065 15.3481C64.8682 15.5454 62.1977 15.8735 59.198 16.4426C57.4924 16.7661 57.3225 16.8365 57.4555 17.1641C57.5421 17.3773 58.3764 17.4847 60.0785 17.5017C63.1891 17.533 66.1079 17.6063 68.9309 17.7241C70.7016 17.798 70.9365 17.8043 72.742 17.8276C73.4163 17.8363 74.5805 17.8663 75.329 17.8943L76.69 17.9453L74.8945 17.7393C72.1737 17.4272 69.2499 17.1467 68.282 17.105C65.0778 16.9669 63.3313 16.9303 60.4716 16.9415C59.7899 16.9442 59.2156 16.9388 59.1953 16.9297C58.9992 16.8409 63.6398 16.2366 65.8425 16.0641C70.8146 15.6746 75.9112 15.5184 83.7204 15.5162C84.4336 15.516 85.8665 15.5032 86.9045 15.4877C87.9425 15.4723 89.5788 15.4482 90.5406 15.4341C94.2426 15.3799 95.3486 15.3332 98.926 15.0804C101.217 14.9185 101.229 14.9164 101.315 14.6721C101.409 14.4036 101.241 14.2613 100.727 14.1754C100.239 14.0939 91.036 13.2062 87.6725 12.9162ZM76.8387 17.9316C76.8805 17.9441 76.9422 17.9498 76.9758 17.9442C77.0094 17.9386 76.9752 17.9284 76.8998 17.9215C76.8244 17.9146 76.7969 17.9191 76.8387 17.9316Z" fill="#DF6951" stroke="#DF6951" stroke-width="0.7"/>
</g>
</svg>
