<svg xmlns="http://www.w3.org/2000/svg" width="20" height="21" viewBox="0 0 20 21" fill="none">
  <g clip-path="url(#clip0_122_9787)">
    <path d="M19.9951 20.8202V20.8193H20.0001V13.4843C20.0001 9.896 19.2276 7.13184 15.0326 7.13184C13.0159 7.13184 11.6626 8.2385 11.1101 9.28767H11.0517V7.46684H7.07422V20.8193H11.2159V14.2077C11.2159 12.4668 11.5459 10.7835 13.7017 10.7835C15.8259 10.7835 15.8576 12.7702 15.8576 14.3193V20.8202H19.9951Z" fill="#DF6951"/>
    <path d="M0.330078 7.46777H4.47675V20.8203H0.330078V7.46777Z" fill="#DF6951"/>
    <path d="M2.40167 0.819336C1.07583 0.819336 0 1.89517 0 3.221C0 4.54684 1.07583 5.64517 2.40167 5.64517C3.7275 5.64517 4.80333 4.54684 4.80333 3.221C4.8025 1.89517 3.72667 0.819336 2.40167 0.819336V0.819336Z" fill="#DF6951"/>
  </g>
  <defs>
    <clipPath id="clip0_122_9787">
      <rect width="20" height="20" fill="white" transform="translate(0 0.819336)"/>
    </clipPath>
  </defs>
</svg>