<svg xmlns="http://www.w3.org/2000/svg" width="21" height="21" viewBox="0 0 21 21" fill="none">
  <g clip-path="url(#clip0_122_9791)">
    <path d="M18.9191 6.74684C19.7325 6.16934 20.4166 5.4485 20.9741 4.6185V4.61767C20.23 4.9435 19.4383 5.16017 18.6116 5.26517C19.4616 4.75767 20.1108 3.96017 20.4158 2.99934C19.6233 3.47184 18.7483 3.80517 17.8158 3.99184C17.0633 3.19017 15.9908 2.69434 14.8208 2.69434C12.5508 2.69434 10.7233 4.53684 10.7233 6.79517C10.7233 7.12017 10.7508 7.43267 10.8183 7.73017C7.40996 7.5635 4.39329 5.93017 2.36662 3.441C2.01329 4.05517 1.80495 4.75767 1.80495 5.5135C1.80495 6.9335 2.53579 8.19184 3.62662 8.921C2.96745 8.9085 2.32162 8.71684 1.77412 8.416V8.461C1.77412 10.4535 3.19495 12.1085 5.05912 12.4902C4.72495 12.5818 4.36162 12.6252 3.98412 12.6252C3.72162 12.6252 3.45662 12.6102 3.20829 12.5552C3.73912 14.1785 5.24745 15.3727 7.03912 15.4118C5.64412 16.5027 3.87245 17.1602 1.95495 17.1602C1.61912 17.1602 1.29662 17.1452 0.974121 17.1043C2.79079 18.2752 4.94245 18.9443 7.26412 18.9443C14.5 18.9443 19.2158 12.9077 18.9191 6.74684Z" fill="#DF6951"/>
  </g>
  <defs>
    <clipPath id="clip0_122_9791">
      <rect width="20" height="20" fill="white" transform="translate(0.974121 0.819336)"/>
    </clipPath>
  </defs>
</svg>