<svg xmlns="http://www.w3.org/2000/svg" width="21" height="21" viewBox="0 0 21 21" fill="none">
  <g clip-path="url(#clip0_122_9793)">
    <path d="M9.39178 14.9177C9.44512 14.8727 9.49928 14.8261 9.54928 14.7769C6.76512 17.5086 2.22512 16.2336 1.16095 12.3811V12.3752C-0.266549 7.13356 5.75262 3.15189 9.54762 6.81856C9.62678 6.90273 14.8693 12.4936 14.536 12.1377H14.551C15.3335 12.9444 16.4651 12.8561 17.1385 12.1511C17.8626 11.3944 17.8885 10.1594 17.1776 9.39023C16.0551 8.09773 13.851 9.06356 14.0618 10.9794L12.8001 9.69439L11.3368 8.29523C11.6385 7.69606 12.0343 7.17189 12.5301 6.71856C12.4768 6.76439 12.4226 6.81189 12.3726 6.85939C15.1676 4.11773 19.7043 5.42273 20.761 9.25856V9.26356C22.1918 14.5044 16.166 18.4861 12.3743 14.8194C12.2968 14.7361 7.05762 9.11023 7.38928 9.46689L7.38595 9.45439C7.37262 9.45439 7.37262 9.44189 7.37262 9.44189C6.55095 8.59439 5.43678 8.72189 4.78512 9.41606C4.06012 10.1727 4.03512 11.4077 4.74762 12.1652C5.82095 13.4277 8.07262 12.4919 7.86095 10.5377C7.94262 10.6219 10.7685 13.5227 10.5885 13.3386C10.131 14.2511 9.61928 14.6702 9.39178 14.9177Z" fill="#DF6951"/>
  </g>
  <defs>
    <clipPath id="clip0_122_9793">
      <rect width="20" height="20" fill="white" transform="translate(0.960938 0.819336)"/>
    </clipPath>
  </defs>
</svg>